<svg xmlns="http://www.w3.org/2000/svg" viewBox="0 0 32 32" fill="none">
  <rect width="32" height="32" rx="6" fill="#000"/>
  <!-- Gear / engine cog: lime on black -->
  <circle cx="16" cy="16" r="7" fill="none" stroke="#d9f99d" stroke-width="1.8"/>
  <circle cx="16" cy="16" r="3" fill="#d9f99d"/>
  <!-- 8 gear teeth -->
  <rect x="14.2" y="6" width="3.6" height="4" rx="0.8" fill="#d9f99d"/>
  <rect x="14.2" y="22" width="3.6" height="4" rx="0.8" fill="#d9f99d"/>
  <rect x="6" y="14.2" width="4" height="3.6" rx="0.8" fill="#d9f99d"/>
  <rect x="22" y="14.2" width="4" height="3.6" rx="0.8" fill="#d9f99d"/>
  <rect x="9.05" y="9.05" width="3.2" height="3.2" rx="0.6" fill="#d9f99d" transform="rotate(-45 16 16)"/>
  <rect x="19.75" y="9.05" width="3.2" height="3.2" rx="0.6" fill="#d9f99d" transform="rotate(45 16 16)"/>
  <rect x="19.75" y="19.75" width="3.2" height="3.2" rx="0.6" fill="#d9f99d" transform="rotate(-45 16 16)"/>
  <rect x="9.05" y="19.75" width="3.2" height="3.2" rx="0.6" fill="#d9f99d" transform="rotate(45 16 16)"/>
</svg>
